PathFileType	4	(X/Y/Z)	/Users/itak/Documents/Research/Walk-IL/dataset/trc/00318_00011.trc
DataRate	CameraRate	NumFrames	NumMarkers	Units	OrigDataRate	OrigDataStartFrame	OrigNumFrames
100.000000	100.000000	4	53	mm	100.000000	271	542
Frame#	Time	RPSI			LPSI			L3			STRN			T10			C7			CLAV			RBAK			LBAK			LSHO			LUPA			LAEL			LAOL			LWTS			LWPS			LFRA			LHPS			LHTS			RSHO			RUPA			RAEL			RAOL			RWTS			RWPS			RFRA			RIFD			RHTS			RHPS			RBHD			LFHD			RFHD			LBHD			LHIP			RHIP			RASI			LASI			LKNE			LTHI			LANK			LTIP			LTOE			LMT1			LMT5			LHEE			RKNE			RTHI			RANK			RTIP			RTOE			RMT1			RMT5			RHEE			LIFD			
		X1	Y1	Z1	X2	Y2	Z2	X3	Y3	Z3	X4	Y4	Z4	X5	Y5	Z5	X6	Y6	Z6	X7	Y7	Z7	X8	Y8	Z8	X9	Y9	Z9	X10	Y10	Z10	X11	Y11	Z11	X12	Y12	Z12	X13	Y13	Z13	X14	Y14	Z14	X15	Y15	Z15	X16	Y16	Z16	X17	Y17	Z17	X18	Y18	Z18	X19	Y19	Z19	X20	Y20	Z20	X21	Y21	Z21	X22	Y22	Z22	X23	Y23	Z23	X24	Y24	Z24	X25	Y25	Z25	X26	Y26	Z26	X27	Y27	Z27	X28	Y28	Z28	X29	Y29	Z29	X30	Y30	Z30	X31	Y31	Z31	X32	Y32	Z32	X33	Y33	Z33	X34	Y34	Z34	X35	Y35	Z35	X36	Y36	Z36	X37	Y37	Z37	X38	Y38	Z38	X39	Y39	Z39	X40	Y40	Z40	X41	Y41	Z41	X42	Y42	Z42	X43	Y43	Z43	X44	Y44	Z44	X45	Y45	Z45	X46	Y46	Z46	X47	Y47	Z47	X48	Y48	Z48	X49	Y49	Z49	X50	Y50	Z50	X51	Y51	Z51	X52	Y52	Z52	X53	Y53	Z53	

272	2.71	-742.609375	964.96435546875	55.74435043334961	-743.9119262695312	970.1309204101562	-73.80545043945312	-752.453369140625	1037.696166992188	-12.77475547790527	-499.3742065429688	1202.8720703125	-5.234469413757324	-748.594482421875	1157.778076171875	-24.96419715881348	-689.8172607421875	1402.56982421875	-36.20581436157227	-538.2220458984375	1328.823852539062	-12.40285587310791	-750.987548828125	1268.6689453125	22.72868347167969	-690.7244262695312	1364.870727539062	-139.8090972900391	-598.4255981445312	1375.700927734375	-179.2706451416016	-591.611328125	1262.361206054688	-254.9185028076172	-504.5171813964844	1076.582641601562	-275.7806396484375	-563.211669921875	1035.312133789062	-231.0804443359375	-297.4534301757812	933.5238647460938	-221.4922485351562	-322.7627563476562	891.2677001953125	-270.2796325683594	-440.0835266113281	992.408935546875	-279.6664733886719	-280.6617431640625	836.771484375	-256.4968872070312	-239.6270599365234	879.0453491210938	-231.7152862548828	-649.8973999023438	1383.179077148438	131.1355895996094	-682.3140869140625	1325.7763671875	191.2170715332031	-764.0669555664062	1073.754028320312	226.6795043945312	-777.5176391601562	1070.152465820312	133.4780883789062	-726.82177734375	820.1246337890625	225.764404296875	-784.6193237304688	826.1572265625	276.6156311035156	-765.43212890625	1005.346923828125	245.3695983886719	-782.29736328125	654.5827026367188	245.8670806884766	-744.1604614257812	718.368408203125	249.124755859375	-802.01806640625	743.6135864257812	279.3119812011719	-659.4901123046875	1589.531860351562	53.57754135131836	-488.5600891113281	1617.691284179688	-63.01765060424805	-500.3093566894531	1618.86767578125	37.38243103027344	-669.2523803710938	1581.130493164062	-91.23582458496094	-663.4864501953125	910.3671264648438	-180.9708557128906	-654.4133911132812	918.2467651367188	162.6399383544922	-555.6197509765625	948.703125	111.4993133544922	-539.9284057617188	934.8269653320312	-125.8638610839844	-660.3907470703125	451.1985778808594	-133.7039947509766	-647.7489624023438	592.0759887695312	-153.8636779785156	-826.8275756835938	55.71491622924805	-89.69857025146484	-738.12353515625	239.5240631103516	-120.1030578613281	-619.1071166992188	42.13412857055664	-47.33049011230469	-686.74267578125	30.29323768615723	-0.4621038138866425	-704.2313842773438	46.70334243774414	-110.5888290405273	-857.183349609375	49.89883041381836	-20.99505424499512	-451.1838989257812	486.8213806152344	143.3620452880859	-524.1775512695312	736.7916870117188	173.6166381835938	-393.5718688964844	64.34775543212891	124.2870101928711	-409.8504333496094	372.8064880371094	139.1148071289062	-204.3758850097656	111.2840423583984	94.24020385742188	-250.3697967529297	88.35523986816406	47.77459335327148	-294.8502502441406	71.40830993652344	154.1354217529297	-438.1945495605469	54.47607803344727	73.49725341796875	-189.412109375	815.55126953125	-205.1441345214844	
273	2.72	-732.1909790039062	963.1264038085938	57.40734481811523	-734.4251098632812	968.4620971679688	-72.05148315429688	-742.7279052734375	1035.752807617188	-11.08730506896973	-489.9372863769531	1201.3232421875	-5.064647674560547	-739.7158203125	1156.030395507812	-23.86974334716797	-680.7447509765625	1400.743896484375	-35.39339447021484	-528.9733276367188	1327.18310546875	-12.1179084777832	-741.6707153320312	1266.796630859375	23.79665374755859	-681.9898681640625	1362.998779296875	-139.0019226074219	-589.87158203125	1373.959594726562	-178.7744750976562	-582.93798828125	1260.66748046875	-254.3981018066406	-495.1990356445312	1075.11572265625	-275.1204223632812	-553.8080444335938	1033.597900390625	-230.3949127197266	-287.1356811523438	934.4765625	-219.0944366455078	-311.5630798339844	891.7225341796875	-267.9804077148438	-430.0872497558594	991.5402221679688	-278.4593200683594	-268.9891357421875	837.742919921875	-253.6652984619141	-228.7237701416016	880.54052734375	-228.5688018798828	-640.2872314453125	1381.38330078125	131.8130035400391	-672.615478515625	1324.092895507812	191.9286346435547	-755.101318359375	1072.337524414062	227.4369659423828	-768.2622680664062	1068.56640625	134.2081298828125	-718.6234741210938	818.5631103515625	227.1996002197266	-776.5309448242188	824.9374389648438	277.8688354492188	-756.7099609375	1003.982177734375	246.2999877929688	-774.904541015625	653.2799682617188	247.4958038330078	-736.6298217773438	716.8592529296875	250.5849456787109	-794.2750244140625	742.4676513671875	280.6752624511719	-650.220458984375	1587.691528320312	54.24927520751953	-479.4640808105469	1616.029541015625	-62.557861328125	-491.0608520507812	1617.149536132812	37.8593635559082	-660.1989135742188	1579.405151367188	-90.54685211181641	-655.190185546875	908.9254760742188	-180.0324249267578	-643.0269165039062	916.3043212890625	163.5216674804688	-544.7343139648438	947.2105712890625	111.6015930175781	-531.026123046875	933.3483276367188	-125.9064788818359	-656.0446166992188	450.5808410644531	-133.7333679199219	-642.1232299804688	591.3289794921875	-153.7109832763672	-826.5731811523438	56.38732147216797	-89.22794342041016	-736.080810546875	239.6916961669922	-119.9294509887695	-619.0692749023438	42.0953483581543	-47.43614196777344	-686.5359497070312	30.35535621643066	-0.3280429542064667	-704.1432495117188	46.73049163818359	-110.5122528076172	-856.9596557617188	51.25406646728516	-20.50425720214844	-442.8874206542969	483.3523559570312	143.4880523681641	-514.5291137695312	733.6844482421875	174.2881927490234	-364.8931884765625	64.05402374267578	126.2590255737305	-396.880859375	371.9775390625	139.9538879394531	-178.0758819580078	118.6492004394531	94.65651702880859	-223.4507751464844	93.99360656738281	48.56820678710938	-266.2337951660156	74.93628692626953	155.3501434326172	-409.4184265136719	51.96482467651367	75.44730377197266	-178.2469940185547	817.48095703125	-201.1329803466797	
274	2.73	-721.7276611328125	961.0437622070312	59.22539901733398	-724.9129638671875	966.653076171875	-70.16726684570312	-732.8223876953125	1033.699340820312	-9.256110191345215	-480.466796875	1199.706420898438	-4.866110324859619	-730.7989501953125	1154.147216796875	-22.68232345581055	-671.6580200195312	1398.808715820312	-34.52479934692383	-519.7177734375	1325.451293945312	-11.80160713195801	-732.3073120117188	1264.791381835938	24.96155548095703	-673.2621459960938	1360.98828125	-138.1237182617188	-581.3341064453125	1372.06640625	-178.2684326171875	-574.3838500976562	1258.75341796875	-253.8255004882812	-486.135498046875	1073.361572265625	-274.433837890625	-544.5966186523438	1031.63037109375	-229.7070617675781	-277.2841796875	934.8762817382812	-216.638427734375	-300.8310546875	891.735107421875	-265.6588439941406	-420.40185546875	990.333984375	-277.216796875	-257.84521484375	838.196044921875	-250.8219146728516	-218.3177185058594	881.4578247070312	-225.3745574951172	-630.624755859375	1379.48291015625	132.5598907470703	-662.8211669921875	1322.264038085938	192.7269897460938	-745.845703125	1070.700073242188	228.3228607177734	-758.7952880859375	1066.766845703125	135.0780944824219	-709.976806640625	816.8229370117188	228.64501953125	-767.9267578125	823.4842529296875	279.2122802734375	-747.6192016601562	1002.394287109375	247.3582305908203	-766.9011840820312	651.7847290039062	249.1643981933594	-728.710693359375	715.0360717773438	251.9310913085938	-785.9274291992188	741.0618286132812	282.1065673828125	-640.9199829101562	1585.782592773438	54.9425048828125	-470.3421020507812	1614.317993164062	-62.09014892578125	-481.7868041992188	1615.367919921875	38.3391227722168	-651.1285400390625	1577.617309570312	-89.84156036376953	-646.83544921875	907.44970703125	-179.0080871582031	-631.5875854492188	914.07373046875	164.4772338867188	-533.7762451171875	945.4698486328125	111.7985305786133	-522.03564453125	931.815185546875	-125.86962890625	-651.3347778320312	449.9229736328125	-133.7984313964844	-636.2232666015625	590.5397338867188	-153.5639038085938	-826.301025390625	57.19676971435547	-88.76165771484375	-733.8206176757812	239.9014129638672	-119.7294311523438	-619.012939453125	42.04241943359375	-47.52248001098633	-686.2985229492188	30.4278392791748	-0.1700108349323273	-704.05322265625	46.78397750854492	-110.4387893676758	-856.6741943359375	52.80807495117188	-19.98516845703125	-433.9912719726562	480.0086975097656	143.8100433349609	-504.5850219726562	730.4498901367188	174.9263916015625	-338.8575134277344	64.24754333496094	128.1266937255859	-384.2932739257812	371.2524108886719	140.8278350830078	-154.3310394287109	125.3207855224609	94.96086883544922	-199.2146301269531	99.29740905761719	49.2431640625	-240.3203887939453	78.40431213378906	156.4584045410156	-383.4650573730469	50.51983261108398	77.34683227539062	-167.6393280029297	818.8099365234375	-197.1451110839844	
275	2.74	-711.2322387695312	958.7570190429688	61.18237686157227	-715.3854370117188	964.7304077148438	-68.17092895507812	-722.7388916015625	1031.579345703125	-7.30409049987793	-470.9669189453125	1198.0361328125	-4.634710788726807	-721.8090209960938	1152.154663085938	-21.40003967285156	-662.5401611328125	1396.798828125	-33.59846496582031	-510.4555969238281	1323.646118164062	-11.4384651184082	-722.8912963867188	1262.688720703125	26.22003364562988	-664.520751953125	1358.873901367188	-137.1737060546875	-572.7838745117188	1370.049682617188	-177.7484893798828	-565.93994140625	1256.634521484375	-253.1871948242188	-477.3263244628906	1071.328857421875	-273.7115783691406	-535.5949096679688	1029.435302734375	-228.990478515625	-267.8998413085938	934.7156982421875	-214.1408081054688	-290.5831298828125	891.2960815429688	-263.3236999511719	-411.0462036132812	988.7965698242188	-275.9362182617188	-247.2441711425781	838.1214599609375	-247.9887390136719	-208.4124755859375	881.7741088867188	-222.15869140625	-620.89892578125	1377.51025390625	133.3835296630859	-652.9303588867188	1320.313110351562	193.6152191162109	-736.2808837890625	1068.854248046875	229.3357696533203	-749.1123046875	1064.775268554688	136.0826416015625	-700.8707275390625	814.9249877929688	230.0857849121094	-758.7905883789062	821.8161010742188	280.6413269042969	-738.1412353515625	1000.597412109375	248.5393218994141	-758.2740478515625	650.1064453125	250.86865234375	-720.441650390625	712.8807983398438	253.1315765380859	-776.95654296875	739.4132080078125	283.6102905273438	-631.5820922851562	1583.849853515625	55.6566162109375	-461.1929016113281	1612.582397460938	-61.62062072753906	-472.482666015625	1613.555541992188	38.81781768798828	-642.0357055664062	1575.80078125	-89.123291015625	-638.392578125	905.953125	-177.8922424316406	-620.132568359375	911.6100463867188	165.5082702636719	-522.772216796875	943.4992065429688	112.0983505249023	-512.9486083984375	930.2385864257812	-125.7470397949219	-646.2327880859375	449.2212829589844	-133.8986206054688	-630.0267944335938	589.7085571289062	-153.4000091552734	-825.9966430664062	58.17910385131836	-88.33834075927734	-731.3175659179688	240.1560516357422	-119.5075988769531	-618.936279296875	41.97295761108398	-47.58807373046875	-686.037109375	30.50443649291992	0.001786185894161463	-703.9392700195312	46.87027359008789	-110.3755569458008	-856.3212280273438	54.56095123291016	-19.48265266418457	-424.3795166015625	476.8983764648438	144.3127288818359	-494.2848205566406	727.2406616210938	175.5062713623047	-315.7382202148438	64.59954071044922	129.8317565917969	-372.0330810546875	370.5568542480469	141.7198486328125	-133.2447662353516	130.9074859619141	95.20493316650391	-177.7969512939453	103.8881988525391	49.82377624511719	-217.3336639404297	81.44097137451172	157.4486236572266	-360.5343017578125	49.7568244934082	79.15444183349609	-157.5846252441406	819.5224609375	-193.2276763916016	
